<svg aria-hidden="true" style="position: absolute; width: 0; height: 0; overflow: hidden;" version="1.1" xmlns="http://www.w3.org/2000/svg" xmlns:xlink="http://www.w3.org/1999/xlink">
<defs>
<symbol id="telegram" viewBox="0 0 32 32">
<path d="M16 0c8.836 0 16 7.163 16 16 0 8.836-7.164 16-16 16-8.835 0-16-7.164-16-16 0-8.837 7.165-16 16-16zM20.299 23.828c0.251 0.177 0.573 0.221 0.861 0.113 0.287-0.109 0.499-0.356 0.563-0.655 0.676-3.176 2.316-11.216 2.931-14.104 0.047-0.219-0.031-0.445-0.201-0.591-0.172-0.145-0.409-0.187-0.62-0.109-3.261 1.208-13.305 4.976-17.411 6.495-0.26 0.097-0.429 0.347-0.421 0.623 0.009 0.275 0.195 0.513 0.461 0.593 1.841 0.551 4.257 1.317 4.257 1.317s1.129 3.411 1.717 5.144c0.075 0.219 0.245 0.389 0.469 0.448 0.225 0.059 0.464-0.003 0.632-0.161 0.945-0.892 2.407-2.272 2.407-2.272s2.779 2.036 4.355 3.159zM11.735 17.079l1.307 4.308 0.291-2.728c0 0 5.044-4.551 7.921-7.144 0.084-0.076 0.095-0.204 0.025-0.293s-0.197-0.111-0.292-0.049c-3.333 2.128-9.252 5.907-9.252 5.907z"></path>
</symbol>
<symbol id="location" viewBox="0 0 32 32">
<path d="M15.999 0c-6.123 0-11.105 4.982-11.105 11.105 0 5.894 10.075 19.665 10.504 20.248l0.4 0.545c0.047 0.064 0.121 0.101 0.2 0.101 0.080 0 0.154-0.037 0.201-0.102l0.4-0.545c0.429-0.583 10.504-14.354 10.504-20.248 0-6.123-4.982-11.105-11.105-11.105zM15.999 7.127c2.194 0 3.978 1.784 3.978 3.978 0 2.193-1.784 3.978-3.978 3.978-2.193 0-3.978-1.785-3.978-3.978 0-2.194 1.785-3.978 3.978-3.978z"></path>
</symbol>
<symbol id="phone" viewBox="0 0 32 32">
<path d="M22.206 0h-12.413c-1.957 0-3.543 1.586-3.543 3.543v24.914c0 1.957 1.586 3.543 3.543 3.543h12.413c1.957 0 3.544-1.586 3.544-3.543v-24.914c0-1.957-1.587-3.543-3.544-3.543zM16 30.249c-0.506 0-0.917-0.41-0.917-0.917s0.411-0.916 0.917-0.916 0.917 0.41 0.917 0.916c0 0.507-0.411 0.917-0.917 0.917zM22.75 26.5h-13.5v-22.5h13.5v22.5z"></path>
</symbol>
<symbol id="mail" viewBox="0 0 32 32">
<path d="M10.662 14.963l-10.563 11.866c-0.027-0.119-0.068-0.235-0.068-0.366v-20.926c0-0.159 0.044-0.302 0.085-0.447l10.546 9.873zM30.874 4.095c-0.077-0.017-0.151-0.055-0.237-0.055h-29.274c-0.081 0-0.153 0.037-0.236 0.055l14.873 13.921 14.873-13.921zM16.425 19.564c-0.122 0.117-0.273 0.174-0.425 0.174s-0.303-0.057-0.423-0.174l-3.888-3.639-10.648 11.959c0.106 0.033 0.21 0.075 0.323 0.075h29.274c0.118 0 0.221-0.043 0.328-0.075l-10.647-11.959-3.892 3.639zM21.343 14.963l10.561 11.865c0.029-0.119 0.064-0.235 0.064-0.364v-20.926c0-0.156-0.039-0.302-0.079-0.446l-10.547 9.872z"></path>
</symbol>
<symbol id="github" viewBox="0 0 32 32">
<path d="M16 1.375c-8.282 0-14.996 6.714-14.996 14.996 0 6.585 4.245 12.18 10.148 14.195l0.106 0.031c0.75 0.141 1.025-0.322 1.025-0.721 0-0.356-0.012-1.3-0.019-2.549-4.171 0.905-5.051-2.012-5.051-2.012-0.288-0.925-0.878-1.685-1.653-2.184l-0.016-0.009c-1.358-0.93 0.105-0.911 0.105-0.911 0.987 0.139 1.814 0.718 2.289 1.53l0.008 0.015c0.554 0.995 1.6 1.657 2.801 1.657 0.576 0 1.116-0.152 1.582-0.419l-0.016 0.008c0.072-0.791 0.421-1.489 0.949-2.005l0.001-0.001c-3.33-0.375-6.831-1.665-6.831-7.41 0-0.027-0.001-0.058-0.001-0.089 0-1.521 0.587-2.905 1.547-3.938l-0.003 0.004c-0.203-0.542-0.321-1.168-0.321-1.821 0-0.777 0.166-1.516 0.465-2.182l-0.014 0.034s1.256-0.402 4.124 1.537c1.124-0.321 2.415-0.506 3.749-0.506s2.625 0.185 3.849 0.53l-0.1-0.024c2.849-1.939 4.105-1.537 4.105-1.537 0.285 0.642 0.451 1.39 0.451 2.177 0 0.642-0.11 1.258-0.313 1.83l0.012-0.038c0.953 1.032 1.538 2.416 1.538 3.937 0 0.031 0 0.061-0.001 0.091v-0.005c0 5.761-3.505 7.029-6.842 7.398 0.632 0.647 1.022 1.532 1.022 2.509 0 0.093-0.004 0.186-0.011 0.278l0.001-0.012c0 2.007-0.019 3.619-0.019 4.106 0 0.394 0.262 0.862 1.031 0.712 6.028-2.029 10.292-7.629 10.292-14.226 0-8.272-6.706-14.977-14.977-14.977-0.006 0-0.013 0-0.019 0h0.001z"></path>
</symbol>
<symbol id="linkedin" viewBox="0 0 32 32">
<path d="M26.667 2.667h-21.333c-1.467 0-2.667 1.2-2.667 2.667v21.333c0 1.467 1.2 2.667 2.667 2.667h21.333c1.467 0 2.667-1.2 2.667-2.667v-21.333c0-1.467-1.2-2.667-2.667-2.667zM10.8 24h-4.133v-11.467h4.133v11.467zM8.667 11.2v0c-1.2 0-2-0.8-2-1.867s0.8-1.867 2.133-1.867c1.2 0 2 0.8 2 1.867s-0.8 1.867-2.133 1.867zM25.333 24h-4.133v-6.267c0-1.733-1.067-2.133-1.467-2.133s-1.733 0.267-1.733 2.133c0 0.267 0 6.267 0 6.267h-4.133v-11.467h4.133v1.6c0.533-0.933 1.6-1.6 3.6-1.6s3.6 1.6 3.6 5.2l0.133 6.267z"></path>
</symbol>
</defs>
</svg>
